@startuml

abstract class Scheduler
abstract class Worker
interface Disposable

Disposable <|.. Worker
Worker +-- Scheduler

Worker <|-- EventLoopWorker1
Worker <|-- EventLoopWorker2
Worker <|-- ScheduledWorker
Worker <|-- TrampolineWorker
Worker <|-- NewThreadWorker
Worker <|-- ExecutorWorker
Worker <|-- TestWorker
EventLoopWorker1 +-- ComputationScheduler
EventLoopWorker2 +-- IoScheduler
ScheduledWorker +-- SingleScheduler
TrampolineWorker +-- TrampolineScheduler
ExecutorWorker +-- ExecutorScheduler
TestWorker +-- TestScheduler

hide members
@enduml